<?xml version="1.0" encoding="UTF-8"?>
<svg width="200" height="90" viewBox="0 0 200 90" xmlns="http://www.w3.org/2000/svg"><rect width="200" height="90" fill="#faf9ff" rx="3"/><line x1="144" y1="45" x2="125" y2="45" stroke="#5533aa" stroke-width="2"/><line x1="141" y1="62" x2="123" y2="55" stroke="#5533aa" stroke-width="2"/><line x1="131" y1="76" x2="118" y2="63" stroke="#5533aa" stroke-width="2"/><line x1="117" y1="86" x2="110" y2="68" stroke="#5533aa" stroke-width="2"/><line x1="100" y1="89" x2="100" y2="70" stroke="#5533aa" stroke-width="2"/><line x1="83" y1="86" x2="90" y2="68" stroke="#5533aa" stroke-width="2"/><line x1="69" y1="76" x2="82" y2="63" stroke="#5533aa" stroke-width="2"/><line x1="59" y1="62" x2="77" y2="55" stroke="#5533aa" stroke-width="2"/><line x1="56" y1="45" x2="75" y2="45" stroke="#5533aa" stroke-width="2"/><line x1="59" y1="28" x2="77" y2="35" stroke="#5533aa" stroke-width="2"/><line x1="69" y1="14" x2="82" y2="27" stroke="#5533aa" stroke-width="2"/><line x1="83" y1="4" x2="90" y2="22" stroke="#5533aa" stroke-width="2"/><line x1="100" y1="1" x2="100" y2="20" stroke="#5533aa" stroke-width="2"/><line x1="117" y1="4" x2="110" y2="22" stroke="#5533aa" stroke-width="2"/><line x1="131" y1="14" x2="118" y2="27" stroke="#5533aa" stroke-width="2"/><line x1="141" y1="28" x2="123" y2="35" stroke="#5533aa" stroke-width="2"/><circle cx="100" cy="45" r="44" fill="none" stroke="#5533aa" stroke-width="2"/><circle cx="100" cy="45" r="25" fill="none" stroke="#AA77FF" stroke-width="1.5" stroke-dasharray="4,3"/><text x="100" y="82" text-anchor="middle" font-family="monospace" font-size="9" fill="#5533aa">Birdcage coil designer</text></svg>
