<?xml version="1.0" encoding="UTF-8"?>
<svg width="200" height="90" viewBox="0 0 200 90" xmlns="http://www.w3.org/2000/svg"><rect width="200" height="90" fill="#faf9ff" rx="3"/><ellipse cx="100" cy="22" rx="54" ry="11" fill="none" stroke="#5533aa" stroke-width="2.4"/><ellipse cx="100" cy="66" rx="54" ry="11" fill="none" stroke="#5533aa" stroke-width="2.4"/><g stroke="#5533aa" stroke-width="2" stroke-linecap="round"><line x1="50" y1="26.2" x2="50" y2="61.9"/><line x1="68" y1="30.9" x2="68" y2="57.1"/><line x1="84" y1="32.5" x2="84" y2="55.5"/><line x1="100" y1="33" x2="100" y2="55"/><line x1="116" y1="32.5" x2="116" y2="55.5"/><line x1="132" y1="30.9" x2="132" y2="57.1"/><line x1="150" y1="26.2" x2="150" y2="61.9"/></g><g stroke="#AA77FF" stroke-width="2" stroke-linecap="round"><line x1="45" y1="41.5" x2="55" y2="41.5"/><line x1="45" y1="46.5" x2="55" y2="46.5"/><line x1="63" y1="41.5" x2="73" y2="41.5"/><line x1="63" y1="46.5" x2="73" y2="46.5"/><line x1="79" y1="41.5" x2="89" y2="41.5"/><line x1="79" y1="46.5" x2="89" y2="46.5"/><line x1="95" y1="41.5" x2="105" y2="41.5"/><line x1="95" y1="46.5" x2="105" y2="46.5"/><line x1="111" y1="41.5" x2="121" y2="41.5"/><line x1="111" y1="46.5" x2="121" y2="46.5"/><line x1="127" y1="41.5" x2="137" y2="41.5"/><line x1="127" y1="46.5" x2="137" y2="46.5"/><line x1="145" y1="41.5" x2="155" y2="41.5"/><line x1="145" y1="46.5" x2="155" y2="46.5"/></g><text x="100" y="86" text-anchor="middle" font-family="monospace" font-size="9" fill="#5533aa">Birdcage coil</text></svg>
