<?xml version="1.0" encoding="UTF-8"?>
<svg width="200" height="90" viewBox="0 0 200 90" xmlns="http://www.w3.org/2000/svg"><rect width="200" height="90" fill="#faf9ff" rx="3"/><line x1="58" y1="34" x2="142" y2="34" stroke="#333" stroke-width="1.6"/><line x1="58" y1="76" x2="142" y2="76" stroke="#333" stroke-width="1.6"/><line x1="58" y1="34" x2="58" y2="42" stroke="#5533aa" stroke-width="1.6"/><path d="M58,42 q-8,3.5 0,7 q-8,3.5 0,7 q-8,3.5 0,7 q-8,3.5 0,7" fill="none" stroke="#5533aa" stroke-width="1.6"/><line x1="58" y1="70" x2="58" y2="76" stroke="#5533aa" stroke-width="1.6"/><text x="34" y="58" text-anchor="middle" font-family="monospace" font-size="11" fill="#5533aa">L</text><line x1="142" y1="34" x2="142" y2="51" stroke="#c0392b" stroke-width="1.6"/><line x1="131" y1="51" x2="153" y2="51" stroke="#c0392b" stroke-width="2.6"/><line x1="131" y1="59" x2="153" y2="59" stroke="#c0392b" stroke-width="2.6"/><line x1="142" y1="59" x2="142" y2="76" stroke="#c0392b" stroke-width="1.6"/><text x="168" y="58" text-anchor="middle" font-family="monospace" font-size="11" fill="#c0392b">C?</text><text x="100" y="20" text-anchor="middle" font-family="monospace" font-size="10" fill="#5533aa">LC Tuning C</text></svg>
