<?xml version="1.0" encoding="UTF-8"?>
<svg width="200" height="90" viewBox="0 0 200 90" xmlns="http://www.w3.org/2000/svg"><rect width="200" height="90" fill="#faf9ff" rx="3"/><!-- Left tank: inductor left (x=25), cap right (x=67) --><path d="M25,75 A7,7 0 0,1 25,61 A7,7 0 0,1 25,47 A7,7 0 0,1 25,33 L25,15" fill="none" stroke="#AA77FF" stroke-width="2.2"/><line x1="67" y1="15" x2="67" y2="33" stroke="#5533aa" stroke-width="1.5"/><line x1="55" y1="33" x2="79" y2="33" stroke="#5533aa" stroke-width="2.5"/><line x1="55" y1="43" x2="79" y2="43" stroke="#5533aa" stroke-width="2.5"/><line x1="67" y1="43" x2="67" y2="75" stroke="#5533aa" stroke-width="1.5"/><line x1="25" y1="15" x2="67" y2="15" stroke="#5533aa" stroke-width="1.5"/><line x1="25" y1="75" x2="67" y2="75" stroke="#5533aa" stroke-width="1.5"/><!-- Right tank: inductor left (x=133), cap right (x=175) --><path d="M133,75 A7,7 0 0,1 133,61 A7,7 0 0,1 133,47 A7,7 0 0,1 133,33 L133,15" fill="none" stroke="#AA77FF" stroke-width="2.2"/><line x1="175" y1="15" x2="175" y2="33" stroke="#5533aa" stroke-width="1.5"/><line x1="163" y1="33" x2="187" y2="33" stroke="#5533aa" stroke-width="2.5"/><line x1="163" y1="43" x2="187" y2="43" stroke="#5533aa" stroke-width="2.5"/><line x1="175" y1="43" x2="175" y2="75" stroke="#5533aa" stroke-width="1.5"/><line x1="133" y1="15" x2="175" y2="15" stroke="#5533aa" stroke-width="1.5"/><line x1="133" y1="75" x2="175" y2="75" stroke="#5533aa" stroke-width="1.5"/><!-- Coupling label --><text x="100" y="49" text-anchor="middle" font-family="monospace" font-size="12" fill="#AA77FF" font-weight="bold">M</text><text x="100" y="87" text-anchor="middle" font-family="monospace" font-size="9" fill="#5533aa">Mode splitting · BW = k·f₀</text></svg>
