<?xml version="1.0" encoding="UTF-8"?>
<svg width="200" height="90" viewBox="0 0 200 90" xmlns="http://www.w3.org/2000/svg"><rect width="200" height="90" fill="#faf9ff" rx="3"/><line x1="18" y1="40" x2="40" y2="40" stroke="#333" stroke-width="1.4"/><path d="M40 26 h30 M55 26 q6 -8 12 0 M67 26 q6 -8 12 0" fill="none" stroke="#5533aa" stroke-width="1.5"/><line x1="79" y1="26" x2="92" y2="26" stroke="#5533aa" stroke-width="1.4"/><line x1="96" y1="19" x2="96" y2="33" stroke="#5533aa" stroke-width="2"/><line x1="100" y1="19" x2="100" y2="33" stroke="#5533aa" stroke-width="2"/><rect x="106" y="21" width="22" height="10" fill="none" stroke="#5533aa" stroke-width="1.4"/><line x1="128" y1="26" x2="160" y2="26" stroke="#5533aa" stroke-width="1.4"/><line x1="40" y1="26" x2="40" y2="40" stroke="#5533aa" stroke-width="1.4"/><line x1="160" y1="26" x2="160" y2="40" stroke="#5533aa" stroke-width="1.4"/><line x1="40" y1="40" x2="90" y2="40" stroke="#AA77FF" stroke-width="1.4"/><line x1="90" y1="40" x2="90" y2="52" stroke="#AA77FF" stroke-width="1.4"/><line x1="80" y1="52" x2="100" y2="52" stroke="#AA77FF" stroke-width="2"/><line x1="80" y1="57" x2="100" y2="57" stroke="#AA77FF" stroke-width="2"/><line x1="90" y1="40" x2="160" y2="40" stroke="#AA77FF" stroke-width="1.4"/><line x1="160" y1="40" x2="182" y2="40" stroke="#333" stroke-width="1.4"/><text x="60" y="18" font-family="monospace" font-size="7" fill="#5533aa">L₁ C₁ R₁</text><text x="100" y="80" text-anchor="middle" font-family="monospace" font-size="9" fill="#5533aa">crystal · fs, fp, Q</text></svg>
