<?xml version="1.0" encoding="UTF-8"?>
<svg width="200" height="90" viewBox="0 0 200 90" xmlns="http://www.w3.org/2000/svg"><rect width="200" height="90" fill="#faf9ff" rx="3"/><line x1="18" y1="38" x2="182" y2="38" stroke="#5533aa" stroke-width="2"/><circle cx="18" cy="38" r="3" fill="#5533aa"/><circle cx="182" cy="38" r="3" fill="#5533aa"/><line x1="55" y1="38" x2="55" y2="52" stroke="#5533aa" stroke-width="1.4"/><line x1="47" y1="52" x2="63" y2="52" stroke="#00ccff" stroke-width="2.5"/><line x1="47" y1="56" x2="63" y2="56" stroke="#00ccff" stroke-width="2.5"/><path d="M82 38 q4 -8 8 0 q4 8 8 0 q4 -8 8 0 q4 8 8 0" fill="none" stroke="#AA77FF" stroke-width="1.8"/><line x1="130" y1="38" x2="130" y2="52" stroke="#5533aa" stroke-width="1.4"/><line x1="122" y1="52" x2="138" y2="52" stroke="#00ccff" stroke-width="2.5"/><line x1="122" y1="56" x2="138" y2="56" stroke="#00ccff" stroke-width="2.5"/><text x="100" y="20" text-anchor="middle" font-family="monospace" font-size="9" fill="#5533aa">g₁ g₂ g₃ …</text><text x="100" y="80" text-anchor="middle" font-family="monospace" font-size="8.5" fill="#5533aa">prototype g-values</text></svg>
