<?xml version="1.0" encoding="UTF-8"?>
<svg width="200" height="90" viewBox="0 0 200 90" xmlns="http://www.w3.org/2000/svg"><rect width="200" height="90" fill="#faf9ff" rx="3"/><line x1="30" y1="72" x2="178" y2="72" stroke="#ccc" stroke-width="1"/><line x1="30" y1="26" x2="30" y2="72" stroke="#ccc" stroke-width="1"/><path d="M30.0,69.5 L33.7,69.0 L37.4,68.4 L41.1,67.6 L44.8,66.8 L48.5,65.8 L52.2,64.7 L55.9,63.5 L59.6,62.2 L63.3,60.8 L67.0,59.2 L70.7,57.6 L74.4,56.0 L78.1,54.2 L81.8,52.4 L85.5,50.6 L89.2,48.7 L92.9,46.7 L96.6,44.8 L100.3,42.8 L104.0,40.8 L107.7,38.8 L111.4,36.8 L115.1,34.8 L118.8,32.8 L122.5,30.7 L126.2,28.7 L129.9,28.0 L133.6,28.0 L137.3,28.0 L141.0,28.0 L144.7,28.0 L148.4,28.0 L152.1,28.0 L155.8,28.0 L159.5,28.0 L163.2,28.0 L166.9,28.0 L170.6,28.0 L174.3,28.0 L178.0,28.0 " fill="none" stroke="#5533aa" stroke-width="2"/><text x="66" y="84" text-anchor="middle" font-family="monospace" font-size="8" fill="#aaa">SNR →</text><text x="110" y="15" text-anchor="middle" font-family="monospace" font-size="10" fill="#5533aa">Shannon C</text></svg>
