<?xml version="1.0" encoding="UTF-8"?>
<svg width="200" height="90" viewBox="0 0 200 90" xmlns="http://www.w3.org/2000/svg"><rect width="200" height="90" fill="#faf9ff" rx="3"/><rect x="80" y="32" width="40" height="40" fill="#5533aa11"/><rect x="74" y="32" width="4" height="40" fill="#c0392b"/><rect x="122" y="32" width="4" height="40" fill="#2e6ac0"/><line x1="78" y1="42" x2="116" y2="42" stroke="#8877cc" stroke-width="1"/><polygon points="116,42 111,39.5 111,44.5" fill="#8877cc"/><line x1="78" y1="52" x2="116" y2="52" stroke="#8877cc" stroke-width="1"/><polygon points="116,52 111,49.5 111,54.5" fill="#8877cc"/><line x1="78" y1="62" x2="116" y2="62" stroke="#8877cc" stroke-width="1"/><polygon points="116,62 111,59.5 111,64.5" fill="#8877cc"/><line x1="74" y1="52" x2="40" y2="52" stroke="#333" stroke-width="1.3"/><line x1="126" y1="52" x2="160" y2="52" stroke="#333" stroke-width="1.3"/><text x="69" y="30" text-anchor="middle" font-family="monospace" font-size="11" fill="#c0392b">+</text><text x="131" y="30" text-anchor="middle" font-family="monospace" font-size="11" fill="#2e6ac0">−</text><text x="100" y="18" text-anchor="middle" font-family="monospace" font-size="9" fill="#5533aa">Plate Cap</text></svg>
