<?xml version="1.0" encoding="UTF-8"?>
<svg width="200" height="90" viewBox="0 0 200 90" xmlns="http://www.w3.org/2000/svg"><rect width="200" height="90" fill="#faf9ff" rx="3"/><line x1="30" y1="72" x2="178" y2="72" stroke="#ccc" stroke-width="1"/><line x1="30" y1="26" x2="30" y2="72" stroke="#ccc" stroke-width="1"/><path d="M30.0,30.0 L33.7,41.3 L37.4,49.3 L41.1,55.5 L44.8,60.5 L48.5,64.8 L52.2,68.5 L55.9,71.8 L59.6,72.0 L63.3,72.0 L67.0,72.0 L70.7,72.0 L74.4,72.0 L78.1,72.0 L81.8,72.0 L85.5,72.0 L89.2,72.0 L92.9,72.0 L96.6,72.0 L100.3,72.0 L104.0,72.0 L107.7,72.0 L111.4,72.0 L115.1,72.0 L118.8,72.0 L122.5,72.0 L126.2,72.0 L129.9,72.0 L133.6,72.0 L137.3,72.0 L141.0,72.0 L144.7,72.0 L148.4,72.0 L152.1,72.0 L155.8,72.0 L159.5,72.0 L163.2,72.0 L166.9,72.0 L170.6,72.0 L174.3,72.0 L178.0,72.0 " fill="none" stroke="#5533aa" stroke-width="2"/><text x="66" y="84" text-anchor="middle" font-family="monospace" font-size="8" fill="#aaa">distance →</text><text x="112" y="15" text-anchor="middle" font-family="monospace" font-size="10" fill="#5533aa">Path Loss</text></svg>
