<?xml version="1.0" encoding="UTF-8"?>
<svg width="200" height="90" viewBox="0 0 200 90" xmlns="http://www.w3.org/2000/svg"><rect width="200" height="90" fill="#faf9ff" rx="3"/><circle cx="100" cy="52" r="28" fill="none" stroke="#ddd" stroke-width="1"/><circle cx="100.0" cy="24.0" r="2.4" fill="#5533aa"/><circle cx="110.7" cy="26.1" r="2.4" fill="#5533aa"/><circle cx="119.8" cy="32.2" r="2.4" fill="#5533aa"/><circle cx="125.9" cy="41.3" r="2.4" fill="#5533aa"/><circle cx="128.0" cy="52.0" r="2.4" fill="#5533aa"/><circle cx="125.9" cy="62.7" r="2.4" fill="#5533aa"/><circle cx="119.8" cy="71.8" r="2.4" fill="#5533aa"/><circle cx="110.7" cy="77.9" r="2.4" fill="#5533aa"/><circle cx="100.0" cy="80.0" r="2.4" fill="#5533aa"/><circle cx="89.3" cy="77.9" r="2.4" fill="#5533aa"/><circle cx="80.2" cy="71.8" r="2.4" fill="#5533aa"/><circle cx="74.1" cy="62.7" r="2.4" fill="#5533aa"/><circle cx="72.0" cy="52.0" r="2.4" fill="#5533aa"/><circle cx="74.1" cy="41.3" r="2.4" fill="#5533aa"/><circle cx="80.2" cy="32.2" r="2.4" fill="#5533aa"/><circle cx="89.3" cy="26.1" r="2.4" fill="#5533aa"/><line x1="100" y1="52" x2="119.8" y2="32.2" stroke="#c0392b" stroke-width="2"/><text x="100" y="16" text-anchor="middle" font-family="monospace" font-size="9" fill="#5533aa">Phase Shifter</text></svg>
