<?xml version="1.0" encoding="UTF-8"?>
<svg width="200" height="90" viewBox="0 0 200 90" xmlns="http://www.w3.org/2000/svg"><rect width="200" height="90" fill="#faf9ff" rx="3"/><line x1="30" y1="40" x2="170" y2="40" stroke="#333" stroke-width="1.4"/><line x1="30" y1="70" x2="170" y2="70" stroke="#333" stroke-width="1.4"/><line x1="70" y1="40" x2="70" y2="48" stroke="#5533aa" stroke-width="1.6"/><line x1="62" y1="49" x2="78" y2="49" stroke="#5533aa" stroke-width="2"/><line x1="62" y1="53" x2="78" y2="53" stroke="#5533aa" stroke-width="2"/><line x1="70" y1="53" x2="70" y2="70" stroke="#5533aa" stroke-width="1.6"/><line x1="130" y1="40" x2="130" y2="48" stroke="#5533aa" stroke-width="1.6"/><line x1="122" y1="49" x2="138" y2="49" stroke="#5533aa" stroke-width="2"/><line x1="122" y1="53" x2="138" y2="53" stroke="#5533aa" stroke-width="2"/><line x1="130" y1="53" x2="130" y2="70" stroke="#5533aa" stroke-width="1.6"/><path d="M70,40 q5,-8 10,0 q5,-8 10,0 q5,-8 10,0" fill="none" stroke="#5533aa" stroke-width="1.6"/><text x="35" y="38" text-anchor="middle" font-family="monospace" font-size="8" fill="#5533aa">R1</text><text x="165" y="38" text-anchor="middle" font-family="monospace" font-size="8" fill="#5533aa">R2</text><text x="100" y="20" text-anchor="middle" font-family="monospace" font-size="10" fill="#5533aa">Pi Match</text></svg>
