<?xml version="1.0" encoding="UTF-8"?>
<svg width="200" height="90" viewBox="0 0 200 90" xmlns="http://www.w3.org/2000/svg"><rect width="200" height="90" fill="#faf9ff" rx="3"/><path d="M24.0,52.0 L25.9,50.6 L27.8,49.2 L29.7,47.9 L31.6,46.7 L33.5,45.6 L35.4,44.7 L37.3,44.0 L39.2,43.4 L41.1,43.1 L43.0,43.0 L44.9,43.1 L46.8,43.4 L48.7,44.0 L50.6,44.7 L52.5,45.6 L54.4,46.7 L56.3,47.9 L58.2,49.2 L60.1,50.6 L62.0,52.0 L63.9,53.4 L65.8,54.8 L67.7,56.1 L69.6,57.3 L71.5,58.4 L73.4,59.3 L75.3,60.0 L77.2,60.6 L79.1,60.9 L81.0,61.0 L82.9,60.9 L84.8,60.6 L86.7,60.0 L88.6,59.3 L90.5,58.4 L92.4,57.3 L94.3,56.1 L96.2,54.8 L98.1,53.4 L100.0,52.0 L101.9,50.6 L103.8,49.2 L105.7,47.9 L107.6,46.7 L109.5,45.6 L111.4,44.7 L113.3,44.0 L115.2,43.4 L117.1,43.1 L119.0,43.0 L120.9,43.1 L122.8,43.4 L124.7,44.0 L126.6,44.7 L128.5,45.6 L130.4,46.7 L132.3,47.9 L134.2,49.2 L136.1,50.6 L138.0,52.0 L139.9,53.4 L141.8,54.8 L143.7,56.1 L145.6,57.3 L147.5,58.4 L149.4,59.3 L151.3,60.0 L153.2,60.6 L155.1,60.9 L157.0,61.0 L158.9,60.9 L160.8,60.6 L162.7,60.0 L164.6,59.3 L166.5,58.4 L168.4,57.3 L170.3,56.1 L172.2,54.8 L174.1,53.4 L176.0,52.0" fill="none" stroke="#2e8b57" stroke-width="1.2"/><path d="M24.0,52.0 L25.9,48.9 L27.8,45.8 L29.7,42.9 L31.6,40.2 L33.5,37.9 L35.4,35.8 L37.3,34.2 L39.2,33.0 L41.1,32.2 L43.0,32.0 L44.9,32.2 L46.8,33.0 L48.7,34.2 L50.6,35.8 L52.5,37.9 L54.4,40.2 L56.3,42.9 L58.2,45.8 L60.1,48.9 L62.0,52.0 L63.9,55.1 L65.8,58.2 L67.7,61.1 L69.6,63.8 L71.5,66.1 L73.4,68.2 L75.3,69.8 L77.2,71.0 L79.1,71.8 L81.0,72.0 L82.9,71.8 L84.8,71.0 L86.7,69.8 L88.6,68.2 L90.5,66.1 L92.4,63.8 L94.3,61.1 L96.2,58.2 L98.1,55.1 L100.0,52.0 L101.9,48.9 L103.8,45.8 L105.7,42.9 L107.6,40.2 L109.5,37.9 L111.4,35.8 L113.3,34.2 L115.2,33.0 L117.1,32.2 L119.0,32.0 L120.9,32.2 L122.8,33.0 L124.7,34.2 L126.6,35.8 L128.5,37.9 L130.4,40.2 L132.3,42.9 L134.2,45.8 L136.1,48.9 L138.0,52.0 L139.9,55.1 L141.8,58.2 L143.7,61.1 L145.6,63.8 L147.5,66.1 L149.4,68.2 L151.3,69.8 L153.2,71.0 L155.1,71.8 L157.0,72.0 L158.9,71.8 L160.8,71.0 L162.7,69.8 L164.6,68.2 L166.5,66.1 L168.4,63.8 L170.3,61.1 L172.2,58.2 L174.1,55.1 L176.0,52.0" fill="none" stroke="#c0392b" stroke-width="1.8"/><text x="30" y="30" text-anchor="middle" font-family="monospace" font-size="10" fill="#c0392b">E</text><text x="30" y="74" text-anchor="middle" font-family="monospace" font-size="10" fill="#2e8b57">H</text><text x="100" y="16" text-anchor="middle" font-family="monospace" font-size="10" fill="#5533aa">Plane Wave</text></svg>
