<?xml version="1.0" encoding="UTF-8"?>
<svg width="200" height="90" viewBox="0 0 200 90" xmlns="http://www.w3.org/2000/svg"><rect width="200" height="90" fill="#faf9ff" rx="3"/><circle cx="25" cy="45" r="5" fill="#5533aa"/><line x1="25" y1="45" x2="70" y2="45" stroke="#5533aa" stroke-width="2"/><rect x="70" y="37" width="28" height="16" fill="#fff" stroke="#5533aa" stroke-width="1.8" rx="2"/><text x="84" y="48" text-anchor="middle" font-family="monospace" font-size="8" fill="#5533aa">R</text><line x1="98" y1="45" x2="130" y2="45" stroke="#5533aa" stroke-width="2"/><line x1="115" y1="45" x2="115" y2="57" stroke="#5533aa" stroke-width="1.5"/><line x1="105" y1="57" x2="125" y2="57" stroke="#5533aa" stroke-width="2.5"/><line x1="105" y1="63" x2="125" y2="63" stroke="#5533aa" stroke-width="2.5"/><line x1="115" y1="63" x2="115" y2="72" stroke="#5533aa" stroke-width="1.5"/><line x1="150" y1="45" x2="150" y2="57" stroke="#AA77FF" stroke-width="1.5"/><line x1="140" y1="57" x2="160" y2="57" stroke="#AA77FF" stroke-width="2.5"/><line x1="140" y1="63" x2="160" y2="63" stroke="#AA77FF" stroke-width="2.5"/><line x1="150" y1="63" x2="150" y2="72" stroke="#5533aa" stroke-width="1.5"/><line x1="130" y1="45" x2="175" y2="45" stroke="#5533aa" stroke-width="2"/><rect x="175" y="37" width="18" height="16" fill="#f0eeff" stroke="#5533aa" stroke-width="1.5" rx="2"/><text x="184" y="48" text-anchor="middle" font-family="monospace" font-size="7" fill="#5533aa">VCO</text><text x="100" y="82" text-anchor="middle" font-family="monospace" font-size="9" fill="#5533aa">PLL loop filter R, C₁, C₂</text></svg>
