<?xml version="1.0" encoding="UTF-8"?>
<svg width="200" height="90" viewBox="0 0 200 90" xmlns="http://www.w3.org/2000/svg"><rect width="200" height="90" fill="#faf9ff" rx="3"/><line x1="20" y1="34" x2="34" y2="34" stroke="#5533aa" stroke-width="1.6"/><path d="M34 34 l4 -6 l5 12 l5 -12 l5 12 l5 -12 l4 6" fill="none" stroke="#c0392b" stroke-width="1.8"/><line x1="66" y1="34" x2="80" y2="34" stroke="#5533aa" stroke-width="1.6"/><path d="M80 34 q5 -9 10 0 q5 -9 10 0 q5 -9 10 0" fill="none" stroke="#AA77FF" stroke-width="1.8"/><line x1="110" y1="34" x2="132" y2="34" stroke="#5533aa" stroke-width="1.6"/><line x1="132" y1="24" x2="132" y2="44" stroke="#00ccff" stroke-width="2.6"/><line x1="138" y1="24" x2="138" y2="44" stroke="#00ccff" stroke-width="2.6"/><line x1="138" y1="34" x2="168" y2="34" stroke="#5533aa" stroke-width="1.6"/><line x1="168" y1="34" x2="168" y2="60" stroke="#5533aa" stroke-width="1.6"/><line x1="168" y1="60" x2="20" y2="60" stroke="#5533aa" stroke-width="1.6"/><line x1="20" y1="60" x2="20" y2="34" stroke="#5533aa" stroke-width="1.6"/><text x="49" y="24" text-anchor="middle" font-family="monospace" font-size="8" fill="#c0392b">R</text><text x="95" y="24" text-anchor="middle" font-family="monospace" font-size="8" fill="#7a4fd0">L</text><text x="135" y="20" text-anchor="middle" font-family="monospace" font-size="8" fill="#0090c0">C</text><text x="100" y="80" text-anchor="middle" font-family="monospace" font-size="8.5" fill="#5533aa">RLC · Q · bandwidth</text></svg>
