<?xml version="1.0" encoding="UTF-8"?>
<svg width="200" height="90" viewBox="0 0 200 90" xmlns="http://www.w3.org/2000/svg"><rect width="200" height="90" fill="#faf9ff" rx="3"/><line x1="18" y1="45" x2="34.8" y2="45" stroke="#333" stroke-width="1.5"/><line x1="148.8" y1="45" x2="182" y2="45" stroke="#333" stroke-width="1.5"/><polyline points="34.8,45 35.8,50.7 37.4,56 39.5,60.6 42.1,64.1 45,66.3" fill="none" stroke="#c9b8ee" stroke-width="1.6" stroke-linecap="round" stroke-linejoin="round"/><polyline points="56.2,23 54.5,23.7 53,25.9 51.7,29.4 50.9,34 50.7,39.3 51,45 52,50.7 53.6,56 55.8,60.6 58.4,64.1 61.3,66.3 64.4,67" fill="none" stroke="#c9b8ee" stroke-width="1.6" stroke-linecap="round" stroke-linejoin="round"/><polyline points="72.5,23 70.8,23.7 69.2,25.9 68,29.4 67.2,34 67,39.3 67.3,45 68.3,50.7 69.9,56 72.1,60.6 74.7,64.1 77.6,66.3 80.6,67" fill="none" stroke="#c9b8ee" stroke-width="1.6" stroke-linecap="round" stroke-linejoin="round"/><polyline points="88.8,23 87.1,23.7 85.5,25.9 84.3,29.4 83.5,34 83.3,39.3 83.6,45 84.6,50.7 86.2,56 88.4,60.6 91,64.1 93.9,66.3 96.9,67" fill="none" stroke="#c9b8ee" stroke-width="1.6" stroke-linecap="round" stroke-linejoin="round"/><polyline points="105.1,23 103.4,23.7 101.8,25.9 100.6,29.4 99.8,34 99.5,39.3 99.9,45 100.9,50.7 102.5,56 104.6,60.6 107.2,64.1 110.1,66.3 113.2,67" fill="none" stroke="#c9b8ee" stroke-width="1.6" stroke-linecap="round" stroke-linejoin="round"/><polyline points="121.4,23 119.6,23.7 118.1,25.9 116.9,29.4 116.1,34 115.8,39.3 116.2,45 117.2,50.7 118.8,56 120.9,60.6 123.5,64.1 126.4,66.3 129.5,67" fill="none" stroke="#c9b8ee" stroke-width="1.6" stroke-linecap="round" stroke-linejoin="round"/><polyline points="137.6,23 135.9,23.7 134.4,25.9 133.1,29.4 132.4,34 132.1,39.3 132.5,45 133.5,50.7 135.1,56 137.2,60.6 139.8,64.1 142.7,66.3 145.8,67" fill="none" stroke="#c9b8ee" stroke-width="1.6" stroke-linecap="round" stroke-linejoin="round"/><polyline points="153.9,23 152.2,23.7 150.7,25.9 149.4,29.4 148.6,34 148.4,39.3 148.8,45" fill="none" stroke="#c9b8ee" stroke-width="1.6" stroke-linecap="round" stroke-linejoin="round"/><polyline points="45,66.3 48.1,67 51.1,66.3 54,64.1 56.6,60.6 58.8,56 60.4,50.7 61.4,45 61.7,39.3 61.5,34 60.7,29.4 59.5,25.9 57.9,23.7 56.2,23" fill="none" stroke="#5533aa" stroke-width="2.1" stroke-linecap="round" stroke-linejoin="round"/><polyline points="64.4,67 67.4,66.3 70.3,64.1 72.9,60.6 75.1,56 76.7,50.7 77.7,45 78,39.3 77.8,34 77,29.4 75.8,25.9 74.2,23.7 72.5,23" fill="none" stroke="#5533aa" stroke-width="2.1" stroke-linecap="round" stroke-linejoin="round"/><polyline points="80.6,67 83.7,66.3 86.6,64.1 89.2,60.6 91.4,56 93,50.7 94,45 94.3,39.3 94.1,34 93.3,29.4 92,25.9 90.5,23.7 88.8,23" fill="none" stroke="#5533aa" stroke-width="2.1" stroke-linecap="round" stroke-linejoin="round"/><polyline points="96.9,67 100,66.3 102.9,64.1 105.5,60.6 107.6,56 109.2,50.7 110.2,45 110.6,39.3 110.4,34 109.6,29.4 108.3,25.9 106.8,23.7 105.1,23" fill="none" stroke="#5533aa" stroke-width="2.1" stroke-linecap="round" stroke-linejoin="round"/><polyline points="113.2,67 116.3,66.3 119.2,64.1 121.8,60.6 123.9,56 125.5,50.7 126.5,45 126.9,39.3 126.6,34 125.9,29.4 124.6,25.9 123.1,23.7 121.4,23" fill="none" stroke="#5533aa" stroke-width="2.1" stroke-linecap="round" stroke-linejoin="round"/><polyline points="129.5,67 132.6,66.3 135.5,64.1 138.1,60.6 140.2,56 141.8,50.7 142.8,45 143.2,39.3 142.9,34 142.1,29.4 140.9,25.9 139.4,23.7 137.6,23" fill="none" stroke="#5533aa" stroke-width="2.1" stroke-linecap="round" stroke-linejoin="round"/><polyline points="145.8,67 148.9,66.3 151.8,64.1 154.4,60.6 156.5,56 158.1,50.7 159.1,45 159.5,39.3 159.2,34 158.4,29.4 157.2,25.9 155.6,23.7 153.9,23" fill="none" stroke="#5533aa" stroke-width="2.1" stroke-linecap="round" stroke-linejoin="round"/><text x="100" y="14" text-anchor="middle" font-family="monospace" font-size="9" fill="#5533aa">Solenoid L</text></svg>
