<?xml version="1.0" encoding="UTF-8"?>
<svg width="200" height="90" viewBox="0 0 200 90" xmlns="http://www.w3.org/2000/svg"><rect width="200" height="90" fill="#faf9ff" rx="3"/><line x1="24" y1="74" x2="180" y2="74" stroke="#ccc" stroke-width="1"/><path d="M24,58 L28.9,60.5 L33.8,55.5 L38.7,60.5 L43.6,55.5 L48.5,60.5 L53.4,55.5 L58.3,60.5 L63.2,55.5 L68.1,60.5 L73.0,55.5 L77.9,60.5 L82.8,55.5 L87.7,60.5 L92.6,55.5 L97.5,60.5 L102.4,55.5 L107.3,60.5 L112.2,55.5 L117.1,60.5 L122.0,55.5 L126.9,60.5 L131.8,55.5 L136.7,60.5 L141.6,55.5 L146.5,60.5 L151.4,55.5 L156.3,60.5 L161.2,55.5 L166.1,60.5 L171.0,55.5 L175.9,60.5 L180.8,55.5" fill="none" stroke="#8877cc" stroke-width="1.2"/><path d="M92,58 Q104,26 104,40 Q104,26 116,58" fill="#5533aa33" stroke="#5533aa" stroke-width="1.6"/><text x="104" y="18" text-anchor="middle" font-family="monospace" font-size="10" fill="#5533aa">DANL</text></svg>
