<?xml version="1.0" encoding="UTF-8"?>
<svg width="200" height="90" viewBox="0 0 200 90" xmlns="http://www.w3.org/2000/svg"><rect width="200" height="90" fill="#faf9ff" rx="3"/><circle cx="48" cy="40" r="22" fill="none" stroke="#AA77FF" stroke-width="6" opacity="0.22"/><circle cx="48" cy="40" r="22" fill="none" stroke="#5533aa" stroke-width="3" stroke-linecap="round"/><text x="48" y="45" text-anchor="middle" font-family="monospace" font-size="13" fill="#AA77FF" font-weight="bold" font-style="italic">L</text><line x1="70" y1="40" x2="80" y2="40" stroke="#5533aa" stroke-width="2" stroke-linecap="round"/><path d="M80,40 A3,3 0 0,1 86,40 A3,3 0 0,1 92,40 A3,3 0 0,1 98,40 A3,3 0 0,1 104,40" fill="none" stroke="#AA77FF" stroke-width="2" stroke-linecap="round"/><line x1="104" y1="40" x2="112" y2="40" stroke="#5533aa" stroke-width="2" stroke-linecap="round"/><circle cx="112" cy="40" r="2" fill="#5533aa"/><line x1="112" y1="40" x2="112" y2="48" stroke="#5533aa" stroke-width="2" stroke-linecap="round"/><line x1="106" y1="48" x2="118" y2="48" stroke="#5533aa" stroke-width="2.4" stroke-linecap="round"/><line x1="106" y1="52" x2="118" y2="52" stroke="#5533aa" stroke-width="2.4" stroke-linecap="round"/><line x1="112" y1="52" x2="112" y2="58" stroke="#5533aa" stroke-width="2" stroke-linecap="round"/><line x1="106" y1="58" x2="118" y2="58" stroke="#444" stroke-width="1.6" stroke-linecap="round"/><line x1="109" y1="61" x2="115" y2="61" stroke="#444" stroke-width="1.2" stroke-linecap="round"/><line x1="112" y1="40" x2="124" y2="40" stroke="#5533aa" stroke-width="2" stroke-linecap="round"/><polygon points="124,31 124,49 142,40" fill="none" stroke="#5533aa" stroke-width="2" stroke-linejoin="round"/><line x1="142" y1="40" x2="156" y2="40" stroke="#5533aa" stroke-width="2" stroke-linecap="round"/><circle cx="158" cy="40" r="2.5" fill="#faf9ff" stroke="#5533aa" stroke-width="1.5"/><text x="133" y="60" text-anchor="middle" font-family="monospace" font-size="7" fill="#888">LNA</text></svg>
