<?xml version="1.0" encoding="UTF-8"?>
<svg width="200" height="90" viewBox="0 0 200 90" xmlns="http://www.w3.org/2000/svg"><rect width="200" height="90" fill="#faf9ff" rx="3"/><path d="M24,54 L25.7,44.5 L27.4,53.2 L29.1,49.7 L30.8,40.4 L32.5,59.7 L34.2,39.2 L35.9,46.1 L37.6,41.8 L39.3,40.4 L41.0,68.2 L42.7,47.6 L44.4,53.9 L46.1,46.4 L47.8,67.6 L49.5,58.6 L51.2,50.6 L52.9,43.1 L54.6,50.2 L56.3,57.9 L58.0,41.0 L59.7,66.8 L61.4,53.5 L63.1,60.0 L64.8,66.6 L66.5,46.6 L68.2,66.0 L69.9,55.1 L71.6,42.4 L73.3,50.3 L75.0,50.3 L76.7,44.6 L78.4,42.0 L80.1,66.5 L81.8,40.8 L83.5,61.1 L85.2,55.8 L86.9,51.7 L88.6,57.2 L90.3,58.9 L92.0,53.6 L93.7,63.4 L95.4,40.8 L97.1,63.0 L98.8,65.4 L100.5,52.0 L102.2,58.1 L103.9,40.1 L105.6,49.0 L107.3,68.3 L109.0,48.8 L110.7,43.1 L112.4,46.5 L114.1,54.4 L115.8,66.1 L117.5,58.4 L119.2,55.7 L120.9,46.2 L122.6,59.0 L124.3,42.1 L126.0,49.6 L127.7,44.6 L129.4,43.2 L131.1,41.2 L132.8,43.7 L134.5,55.4 L136.2,55.3 L137.9,40.2 L139.6,49.1 L141.3,65.8 L143.0,43.6 L144.7,52.9 L146.4,67.1 L148.1,62.6 L149.8,51.2 L151.5,67.1 L153.2,65.1 L154.9,48.2 L156.6,42.0 L158.3,61.7 L160.0,50.1 L161.7,63.2 L163.4,42.7 L165.1,64.8 L166.8,61.9 L168.5,60.6 L170.2,47.1 L171.9,48.1 L173.6,64.3 L175.3,59.1 L177.0,67.9" fill="none" stroke="#5533aa" stroke-width="1"/><text x="100" y="18" text-anchor="middle" font-family="monospace" font-size="10" fill="#5533aa">Thermal Noise</text><text x="100" y="80" text-anchor="middle" font-family="monospace" font-size="9" fill="#888">sqrt(4kTRB)</text></svg>
