<?xml version="1.0" encoding="UTF-8"?>
<svg width="200" height="90" viewBox="0 0 200 90" xmlns="http://www.w3.org/2000/svg"><rect width="200" height="90" fill="#faf9ff" rx="3"/><line x1="30" y1="72" x2="176" y2="72" stroke="#ccc" stroke-width="1"/><line x1="30" y1="26" x2="30" y2="72" stroke="#ccc" stroke-width="1"/><path d="M30.0,28.0 L33.6,34.2 L37.3,38.4 L41.0,41.4 L44.6,43.8 L48.3,45.6 L51.9,47.2 L55.5,48.5 L59.2,49.6 L62.9,50.6 L66.5,51.4 L70.2,52.2 L73.8,52.9 L77.5,53.5 L81.1,54.0 L84.8,54.5 L88.4,55.0 L92.0,55.5 L95.7,55.9 L99.3,56.2 L103.0,56.6 L106.7,56.9 L110.3,57.2 L113.9,57.5 L117.6,57.8 L121.3,58.0 L124.9,58.3 L128.6,58.5 L132.2,58.7 L135.8,58.9 L139.5,59.1 L143.2,59.3 L146.8,59.5 L150.4,59.7 L154.1,59.9 L157.8,60.0 L161.4,60.2 L165.1,60.3 L168.7,60.5 L172.3,60.6 L176.0,60.7 " fill="none" stroke="#5533aa" stroke-width="2"/><text x="66" y="84" text-anchor="middle" font-family="monospace" font-size="8" fill="#aaa">V →</text><text x="112" y="15" text-anchor="middle" font-family="monospace" font-size="9" fill="#5533aa">Varactor C-V</text></svg>
